<svg xmlns="http://www.w3.org/2000/svg" viewBox="0 0 292 292"><defs><style>.cls-1{fill:#30f2df;}.cls-2{fill:#581259;}</style></defs><g id="Layer_2" data-name="Layer 2"><g id="Layer_1-2" data-name="Layer 1"><circle class="cls-1" cx="146" cy="146" r="145.5"/><path d="M146,1A145,145,0,0,1,248.53,248.53,145,145,0,1,1,43.47,43.47,144,144,0,0,1,146,1m0-1A146,146,0,1,0,292,146,146,146,0,0,0,146,0Z"/><circle class="cls-2" cx="80" cy="91" r="20.5"/><path class="cls-2" d="M80,71A20,20,0,1,1,60,91,20,20,0,0,1,80,71m0-1a21,21,0,1,0,21,21A21,21,0,0,0,80,70Z"/><circle class="cls-2" cx="211" cy="91" r="20.5"/><path class="cls-2" d="M211,71a20,20,0,1,1-20,20,20,20,0,0,1,20-20m0-1a21,21,0,1,0,21,21,21,21,0,0,0-21-21Z"/><path class="cls-2" d="M55.25,176.65c.32,17,3.34,34.87,14,48.61,5.37,6.92,12.42,12.31,19.94,16.71a140,140,0,0,0,25,11.49,84.05,84.05,0,0,0,27.75,4.68,98.39,98.39,0,0,0,27.31-4.2c17-5,33.56-13.66,45.71-26.75a84.87,84.87,0,0,0,21.38-42.74c.35-2,.61-3.95.82-5.94s-2.8-1.9-3,0A81.23,81.23,0,0,1,216.36,221c-10.79,13.27-25.59,22.19-41.56,28-16.94,6.13-35.44,8.28-53,3.68A124.78,124.78,0,0,1,96.41,242.5c-7.41-3.82-14.58-8.32-20.51-14.24-12-12-16.4-28.93-17.41-45.43q-.18-3.09-.24-6.18c0-1.93-3-1.94-3,0Z"/></g></g></svg>