<svg xmlns="http://www.w3.org/2000/svg" viewBox="0 0 292 292"><defs><style>.cls-1{fill:#581259;}.cls-2{fill:#30f2df;}.cls-3{fill:#d904a0;}</style></defs><g id="Layer_2" data-name="Layer 2"><g id="Layer_1-2" data-name="Layer 1"><circle class="cls-1" cx="146" cy="146" r="145.5"/><path d="M146,1A145,145,0,0,1,248.53,248.53,145,145,0,1,1,43.47,43.47,144,144,0,0,1,146,1m0-1A146,146,0,1,0,292,146,146,146,0,0,0,146,0Z"/><circle class="cls-2" cx="78" cy="91" r="20.5"/><path class="cls-3" d="M78,71A20,20,0,1,1,58,91,20,20,0,0,1,78,71m0-1A21,21,0,1,0,99,91,21,21,0,0,0,78,70Z"/><circle class="cls-2" cx="209" cy="91" r="20.5"/><path class="cls-3" d="M209,71a20,20,0,1,1-20,20,20,20,0,0,1,20-20m0-1a21,21,0,1,0,21,21,21,21,0,0,0-21-21Z"/><path class="cls-2" d="M237.14,247.64c-.32-17-3.34-34.87-14-48.61-5.37-6.92-12.42-12.31-19.93-16.71a139.76,139.76,0,0,0-25-11.49,84,84,0,0,0-27.74-4.68,98.46,98.46,0,0,0-27.32,4.2c-17,5-33.56,13.66-45.71,26.75a84.87,84.87,0,0,0-21.38,42.74q-.51,3-.82,5.94c-.2,1.92,2.8,1.9,3,0A81.31,81.31,0,0,1,76,203.3c10.8-13.27,25.59-22.19,41.56-28,16.95-6.13,35.44-8.28,53-3.68A124.78,124.78,0,0,1,196,181.79c7.42,3.82,14.58,8.32,20.51,14.24,12,12,16.4,28.93,17.41,45.43.13,2.06.2,4.12.24,6.18s3,1.94,3,0Z"/></g></g></svg>